<svg xmlns="http://www.w3.org/2000/svg" width="24" height="24" viewBox="0 0 24 24" fill="none">
  <path d="M7.1 4.8C7.4 4.5 7.8 4.34 8.22 4.34H10.3C10.93 4.34 11.47 4.78 11.59 5.4L11.95 7.3C12.04 7.78 11.9 8.27 11.57 8.62L10.6 9.66C11.5 11.25 12.77 12.53 14.35 13.4L15.38 12.43C15.74 12.1 16.23 11.96 16.7 12.05L18.6 12.41C19.22 12.53 19.66 13.07 19.66 13.7V15.78C19.66 16.2 19.5 16.6 19.2 16.9L18.25 17.85C17.6 18.5 16.66 18.78 15.76 18.56C9.7 17.03 6.97 14.3 5.44 8.24C5.22 7.34 5.5 6.4 6.15 5.75L7.1 4.8Z" stroke="#8b0029" stroke-width="1.8" stroke-linecap="round" stroke-linejoin="round"/>
</svg>
